/* XPM */
static char *display_im6_q16[] = {
/* columns rows colors chars-per-pixel */
"32 32 172 2 ",
"   c #2F972619372D",
".  c #5C572128236E",
"X  c #1ECD23CB5412",
"o  c #255426454809",
"O  c #30E735A84FB5",
"+  c #2823282C5423",
"@  c #3B6236E256D6",
"#  c #23FF2A87639E",
"$  c #25B42CFF6DE5",
"%  c #325A2CB96394",
"&  c #2B57315C6442",
"*  c #308E37E768FB",
"=  c #39773E1A6641",
"-  c #253A2EA8716E",
";  c #273033877B4B",
":  c #29B736117D82",
">  c #32163E1E7A7F",
",  c #3F6040124A80",
"<  c #336B3FF07D15",
"1  c #570F4A55482C",
"2  c #457E46B05B0A",
"3  c #568E4DA056B1",
"4  c #5B195A0453E0",
"5  c #60D94AA64CCC",
"6  c #67E35AAF5329",
"7  c #74545D5B5054",
"8  c #6340614F5BFE",
"9  c #78AA77BA5F02",
"0  c #4BEC4E846E28",
"q  c #5C365E41660A",
"w  c #561B58436D33",
"e  c #439A48A877A3",
"r  c #4D7D56B6789F",
"t  c #54535B1C7D8B",
"y  c #52BE57447EC8",
"u  c #5DA766256980",
"i  c #580564767649",
"p  c #658A6625668C",
"a  c #695D718563F9",
"s  c #7D7A7F4A61CA",
"d  c #677E6BAA735B",
"f  c #72A06D4273D4",
"g  c #76B5663A7380",
"h  c #6B7572C570B8",
"j  c #7908751C7D2C",
"k  c #79CE78577CB1",
"l  c #83F31F1F26E0",
"z  c #81332423365B",
"x  c #88FE47B73737",
"c  c #8B5554B33E8B",
"v  c #C44166003F9B",
"b  c #89C6598C45A8",
"n  c #A3F65CF547BD",
"m  c #9B116C8E583D",
"M  c #A83C64874499",
"N  c #BCF1694F469A",
"B  c #BEF079B45D17",
"V  c #96437A2C6D78",
"C  c #87C57B7B756B",
"Z  c #98327A897445",
"A  c #A80C6CCB6E85",
"S  c #BA657BEE6096",
"D  c #BB6D72807527",
"F  c #CCCA73994D04",
"G  c #C4EB7457509A",
"H  c #D11D76CB4FD0",
"J  c #CC7C7FC5608B",
"K  c #FFFF67F567F5",
"L  c #FFFF65766575",
"P  c #FFFF720D720D",
"I  c #FFFE7DA87D83",
"U  c #84E68DD95F91",
"Y  c #8CD194A85B10",
"T  c #9E47A4654F87",
"R  c #99FCA09852EA",
"E  c #A403A9244D21",
"W  c #98B080F8761C",
"Q  c #AC0586757805",
"!  c #287D35538189",
"~  c #2AD93A12851D",
"^  c #2A4B3A448B2E",
"/  c #27283571819F",
"(  c #308B3FAF8958",
")  c #2A1E3C0892BD",
"_  c #3DB54B558519",
"`  c #376345C68857",
"'  c #42A5517B84F7",
"]  c #4A86544F848B",
"[  c #455D51348AF6",
"{  c #5C8264A1843D",
"}  c #584361B98510",
"|  c #63206987873B",
" . c #7A59790E8829",
".. c #6A7371799427",
"X. c #75D77BCD9524",
"o. c #83D983128477",
"O. c #8A6985EA8546",
"+. c #890D8A6A9542",
"@. c #8B658CAD993F",
"#. c #80C58403929A",
"$. c #9C1A9B929CFC",
"%. c #95BA93AA968F",
"&. c #ACB38FA28277",
"*. c #BCDF9AA08B7F",
"=. c #B8BCA0289565",
"-. c #83DD8805A172",
";. c #8D26915BA302",
":. c #98D19B49A810",
">. c #A605A4A3A4C2",
",. c #A741A7E6ACB7",
"<. c #B0DBAB17AA98",
"1. c #A9F1AC4FB9B8",
"2. c #A31BA73EB6ED",
"3. c #B69BB565B372",
"4. c #B8D3B821B7A2",
"5. c #BD3EBC59BC7F",
"6. c #FFFF810F810F",
"7. c #FFFF8C4E8C41",
"8. c #FFFF93D893D8",
"9. c #FFFF9A789A78",
"0. c #C98DA600968F",
"q. c #C044BF9792AF",
"w. c #CDA1B3F19F31",
"e. c #D87DBB48AE15",
"r. c #CBD6BBAAB4A8",
"t. c #D211BCD6B869",
"y. c #FFFFA335A335",
"u. c #FFFEAB7CAB66",
"i. c #C461C3AF98F8",
"p. c #CC2ACBA4A9D0",
"a. c #D02ECFB5B1E9",
"s. c #CDE0C0A0BA7F",
"d. c #D649D5E3BDBB",
"f. c #E248DBCAB9B4",
"g. c #C543C4CFC592",
"h. c #C5B9C745CF3E",
"j. c #D85FD800C1BB",
"k. c #D9A8D94CC40E",
"l. c #DDD8DD89CB97",
"z. c #C96BCABAD183",
"x. c #D001D0F5D601",
"c. c #D370D2E1D35A",
"v. c #D619D6EBDA85",
"b. c #DCC2DCD1DE03",
"n. c #FFFEC3E9C3C6",
"m. c #FFC5CBEFC7CE",
"M. c #E8A3DF1BDA8B",
"N. c #FFFED0F7D0F7",
"B. c #FFFFDBB6DBB6",
"V. c #E766E72FDC1D",
"C. c #EBCBE623DDFC",
"Z. c #EC3AEB55DC44",
"A. c #EA7BE6EED0E6",
"S. c #FFA9E7D0D75E",
"D. c #F71EE7C9DF66",
"F. c #DF49DF96E161",
"G. c #E39EE3C8E517",
"H. c #ECE5EBEEE50F",
"J. c #ED72EC9DEBEC",
"K. c #E94FE59AE440",
"L. c #FFFDE25EE243",
"P. c #FFFFEED0EED0",
"I. c #FF86F9B2E286",
"U. c #F35BF29EEE22",
"Y. c #FFABFBA5EBA2",
"T. c #FC4DF5B4E524",
"R. c #F01FF02FF0E6",
"E. c #F5A6F587F4C7",
"W. c #FE94F430F3D6",
"Q. c #FD9DFC12F5DA",
"!. c #FFB1FF99FF7F",
"~. c None",
/* pixels */
"~.!.!.!.!.!.!.Q.!.!.Y.Q.!.Q.Q.E.!.!.!.!.!.!.!.!.!.!.!.!.!.!.!.!.",
"~.!.!.!.Y.!.Q.i.H.!.!.!.Q.Q.j.d.!.!.Q.!.!.!.!.!.!.!.!.!.!.!.!.!.",
"~.!.!.!.Q.!.!.E.!.L.B.B.W.!.E.W.!.!.Q.!.!.!.!.!.!.!.!.!.!.!.!.!.",
"~.!.!.E.d.!.!.W.W.8.P 6.P 8.7.y.B.P.Q.!.!.!.!.!.!.!.!.!.!.!.!.!.",
"~.!.!.E.k.Q.B.I u.n.7.u.9.6.K 6.9.I n.!.Q.!.!.!.!.!.!.Q.G.3.g.!.",
"~.I.!.!.!.N.6.P m.T.!.Q.Q.L.B.P.n.7.N.!.Q.Q.!.!.!.!.G.;.s j E.!.",
"~.!.!.!.m.L 6.u.E.i.Q.d.d.!.!.!.!.I.Q.E.l.!.!.!.E.2.} a 4 z.!.!.",
"~.!.!.P.7.I S.!.E.H.E.E.E.!.Q.l.Q.!.!.E.k.!.!.G.X.T u 0 o.Q.!.!.",
"~.q.E.u.6.L.Q.!.p.H.T.A.V.p.E.a.Q.!.!.!.!.!.v.{ _ R u , F.!.!.!.",
"~.V.L.9.y.Q.Y.Q.H.Q.Y.d.W.J.!.!.!.I.!.!.!.b.h i t i @ +.!.!.!.!.",
"~.!.W.n.N.!.!.!.!.!.!.Z.H.!.!.!.!.!.!.!.J.{ T ` ' u 8 F.!.!.!.!.",
"~.!.!.!.!.!.!.!.!.!.!.Q.f.Q.!.!.!.!.!.E.+._ U Y s 7 f Q.!.!.!.!.",
"~.!.!.!.!.l.V.!.!.!.!.!.C.w.e.K.!.!.Q.#.8 p u u 0 @  .!.!.!.!.!.",
"~.!.!.!.!.V.J.!.!.!.!.!.M.M N V 1.!.E.j b F c c 6 1 @.!.!.!.!.!.",
"~.!.!.!.!.!.!.!.!.!.!.!.Q.*.F n ] R.!.t.W G C B J O.f Q.!.!.!.!.",
"~.!.!.!.!.!.!.!.!.!.!.!.!.E.g x e h.!.s.r.0.Q F G m =.!.!.!.!.!.",
"~.!.!.!.!.!.!.!.!.!.!.!.!.E.r + ; [ z.4.5.g.<.S Q V K.!.!.!.!.!.",
"~.!.!.!.!.!.!.!.!.!.!.!.!.E.e + ; ) [ :.Q.R.R.K.>.4.!.!.!.!.!.!.",
"~.!.!.!.!.!.!.!.!.!.!.!.!.!.| # - ^ ) ..!.!.!.E.>.<.!.!.!.!.!.!.",
"~.!.!.!.!.!.!.!.!.!.!.!.!.!.z.X.0 # ! ] E.!.!.Q.4.k E.!.!.!.!.!.",
"~.!.!.!.!.!.!.!.!.!.!.!.!.!.!.!.R.@.& < F.!.!.!.v.d } z.E.!.!.!.",
"~.!.!.!.!.!.!.!.!.!.!.!.!.!.!.!.!.Q.@.~ ,.!.!.!.J.%.> ` | E.!.!.",
"~.!.!.!.!.!.!.!.!.!.!.!.!.!.!.!.!.!.z.~ ] E.!.!.!.g.w / = R.!.!.",
"~.!.!.!.!.!.!.!.!.!.!.!.!.!.!.!.!.!.G.> ~ 1.!.!.!.F.%.* 0 E.!.!.",
"~.!.!.!.!.!.!.!.!.!.!.!.!.!.!.!.!.!.R.e ) ' v.!.!.E.4.q  .Q.!.!.",
"~.!.!.!.!.!.!.!.!.!.!.!.!.!.!.!.!.!.W.} ) ) [ z.E.J.r.o.b K.!.!.",
"~.!.!.!.!.!.!.!.!.!.!.!.!.!.!.!.!.!.!.;.^ ) ) ` t d d 2 3 J.!.!.",
"~.!.!.!.!.!.!.!.!.!.!.!.!.!.!.!.!.!.!.v.( ) ) ) ) ^ ^ : # w b.!.",
"~.!.!.!.!.!.!.!.!.!.!.!.!.!.!.!.!.!.!.Q.;.) ) ) ) ) ) ^ $ X +.!.",
"~.!.!.!.!.!.!.!.!.!.!.!.!.!.!.!.!.!.!.Q.D . % ^ ) ) ^ - # + 3 g.",
"~.!.!.!.!.!.!.!.!.!.!.!.!.!.!.!.!.!.!.!.t.A 1 , O + o o   l . O.",
"~.!.!.!.!.!.!.!.!.!.!.!.!.!.!.!.!.!.!.!.!.!.E.b.r.:.o.o.>.<.<.G."
};
